<svg xmlns="http://www.w3.org/2000/svg" xml:space="preserve" width="210mm" height="50mm" style="shape-rendering:geometricPrecision;text-rendering:geometricPrecision;image-rendering:optimizeQuality;fill-rule:evenodd;clip-rule:evenodd" version="1.0" viewBox="0 0 21000 5000"><defs><style>.fil2{fill:#fefefe}.fil0{fill:#3cdbc0}</style></defs><g id="Warstwa_x0020_1"><g id="_1397316943584"><path d="m3140.9 3954.31-923.01-2653.34c-210.14-17.64-519.4-6-735.72-.67-550.68 13.54-424.09 623.32-419.02 1031.42 3.04 245.55 1.12 493.72.3 739.45-.67 202.93-33.71 524.37 51.22 688.23 38.39 74.09 113.54 143.39 197.71 172.13 102.34 34.94 230.67 28.58 342.63 28.49 210.6-.15 1384.83 14.33 1485.89-5.71z" class="fil0"/><path d="M6810.83 3957.72c492.9 1.13 983.74 1.66 1474.54 2.25 279.5.34 436.49-.17 549.67-191.29 93.07-157.12 59.09-462.91 57.45-660.54-2.02-245.62 2.47-493.56 3.64-739.45 1.04-217.91 17.33-530.76-7.64-739.16-23.05-192.29-200.06-320.5-405.53-329.08-241.4-10.07-494.96-1.29-737.61-.32l-934.52 2657.59z" style="fill:#963cbd"/><path d="m10384.56 2691.96 3.09-1002.15-360.11-.9v587.99c0 224.84 11.14 602.91-19.73 606.82-67.57 44.77-134.34 44.84-236.26 37.35-117.83-8.67-117.57-35.93-123.65-150.97-18.32-346.29 22.29-789.32-3.27-1096.72-16.94-203.72-168.98-185.04-364.52-184.16-10.16 400.81-1.37 816.64-.95 1219.02.28 269.62 40.98 304.7 308 306.08l1232.41.04c257.37-.52 317.65-31.2 319.64-293.78 1.51-199.28 9.08-1097.81-2.83-1228.81-465.69-34.53-368.95 131.52-369.77 822.1-.13 104.42 21.33 521.13-25.22 574.7-40.61 46.73-197.76 37.86-264.07 25.03-109.99-21.29-79.99-122.19-92.76-221.64z" class="fil2"/><path d="m6202.6 3289.11 701.78-1984.55-1391.34-4.39c7.43 101.75 656.59 1949.82 689.56 1988.94z" style="fill:#0085ad"/><path d="M3746.57 3289.46c37.98-42.13 314.97-860.11 358.25-985.07 44.54-128.64 349.6-942.96 342.28-1000.29l-1383.37-3.7 682.84 1989.06z" style="fill:#fc4c02"/><path d="M13703.69 2913.81c-321.17 34.43-310.39-13.06-311.61-181.33-2.23-305.44-68.11-499.33 298.29-429.78 84.34 16 73.79 83.86 73.78 171.38-.01 140.39 39.61 354.85-60.46 439.73zm-289.41-730.31c-35.61-95.55-26.32-346.74-23.19-473.97 2.22-89.91 38.93-119.01 126.89-125.8 64.92-5.01 182.07-16.36 220.8 29.61 35.73 42.42 38.4 390.09 27.9 466.73-11.1 81.05-39.33 118.18-124.29 124.05-88.91 6.13-158.61.4-228.11-20.62zm-385.72 828.57c204.13 12.71 773.65 33.17 954.39-1.95 195.62-38.01 158.83-302.92 153.69-560.7-2.61-130.91-12.42-104.43-52.99-197.17 36.36-85.54 50.18-63.51 52.52-184.79 4.17-216.12 49.11-540.37-152.87-574.6-177.19-30.04-760.64-15.72-954.88.69-15.42 55.11-15.51 1428.63.14 1518.52zM18954.06 3013.18c318.9 5.56 376.39-24.06 370.03-354.23-1.44-75.47-20.2-287.09 24.41-332.2 51.18-51.75 263.2-24.87 323.47-5.21 49.49 152.23 4.45 350.74 25.94 520.36 23.89 188.68 180.4 173.62 362.37 172.09 19.35-194.42 11.64-1281.73 4.23-1525.11-330.32-1.96-375.59 13.42-370.67 356.68 1.26 87.09 26.99 269.24-30.84 327.31-55.52 55.75-254.05 34.4-318.53 9.62-79.89-225.09 72.2-605.1-138.81-675.54-73.12-24.42-173.18-18.89-252.53-16.38l.93 1522.61z" class="fil2"/><path d="m4365.92 3956.22 1223.38 3.75c-15.79-97.15-573.62-1680.44-609.78-1734.48l-613.6 1730.73z" class="fil0"/><path d="M16347.51 1605.77c41.42-26.87 162.7-25.03 227.99-20.81 92.68 5.99 104.95 29.25 123.39 112.04 43.06 193.4 175.36 174.77 369.93 173.3l-.94-381.32h-1114.7c1.69 475.48-6.63 1063.26 7.75 1525.25l1103.45-2.78 1.29-374.36c-124.97-13.89-252.7-21.66-323.9 65.11-90.71 110.52 22.83 218.25-203.83 218.03-155.7-.15-213.17 13.68-213.45-150.37-.93-578.64-48.7-429.41 556.62-447.21l-.74-141.69c-137.14 1.18-409.78 28.41-517.37-23.84-42.29-33.31-43.36-231.17-44.67-274.59-3.15-104.14 2.23-194.65 29.18-276.76zM11529.88 3009.94h1107.49l-5.52-377.56c-207.55.96-318.76-26.95-365.56 180.06-24.45 108.13-41.98 107.78-165 107.97-89.17.13-180.02 7.84-201.38-71.1-22.9-84.58-20.71-455.72 27.76-499.62 54.69-49.55 421.14-26.7 518.29-25.9l4.99-143.17c-102.04.54-464.33 25.89-523.06-25.79-50.13-44.12-50.55-413.97-28.31-499.78 23.52-90.78 104.38-71.19 201.71-71.1 119.61.12 141.58-4.1 166.68 107.81 18.48 82.43 46.06 133.24 111 159.98 57.98 23.87 195.19 26.73 258.55 12.46l-.08-369.55-1103.03-3.42-4.53 1518.71zM18567.04 2637.81c-434.02-73.96-338.52 224.09-417.19 266.11-57 30.44-259.02 24.84-300.61-16.08-47.26-46.5-25.44-237.06-25.45-315.16-.04-230.05.1-460.1.01-690.15-.03-102.58-28.38-251.38 56.21-285.64 69.81-28.27 239.14-10.25 298.44 13.02 19.32 104.01 24.34 181.86 102.98 229.89 65.8 40.19 195.62 40.21 285.67 26.13-.78-226.65 11.09-351.49-180.75-375.36-161.86-20.15-396.51-1.83-566.7-1.81-446.22.03-368.38 44.2-367.97 763.49.41 700.08-82.23 760.91 367.97 762.19 661.5 1.89 745.46 92.88 747.39-376.63zM14490.38 1632.44c435.22-.97 375.72-90.78 374.26 656.79-.47 239.51-.91 479.03-1.33 718.55l359.9 2.35c-1.33-171.41-18.5-1164.56 13.07-1296.2 30.34-126.48 245.46-83.15 361.43-81.63l5.78-143.29-1114.43-.03 1.32 143.46zM17671.76 3763.54c11.21-11.26 12.44 21.05 16.9-43.5l-3.63-152.26c126.8 44.83 252.63 157.62 373.9 203.44-.7-75-1.83-149.93-1.42-224.94.2-37 .36-74.01 1.38-111 2.34-84.96 2.23-65.12-21.98-89.56l1.19 198.29c-91.26-29.1-303.72-179.63-374.25-203.35-.26 68.81-8.83 383.89 7.91 422.88zM13452.9 3369.73c-9.26 48-7.34 253.89.42 305.44 15.1 100.18 89.15 118.08 200.82 116.18 108.62-1.85 170.57-31.89 187.32-131.03 9.88-58.5 22.22-257.64-2.49-294.55-65.74 100.92 107.52 431.87-207.62 403.14-1.02-88.47 12.76-333.44-7.67-400.7l-170.78 1.52zM10205.15 3704.8c42.68 111.95 302.22 102.68 325.37-27.27 21.26-119.37-172.4-205.64-173.96-298.48 64.89-24.34 101.51 13.17 146.12 31.3-13.84-37.14-21.61-44.7-70.22-56.18-89.38-21.12-215.38 9.19-224.15 107.69-11.7 131.71 157.25 175.01 171.27 296.35-133.72 12.23-98.93-39.92-174.43-53.41zM18972.81 3380.03c59.05-13.96 91.26 21.52 140.03 35.05-51.56-111.72-300.58-68-295.23 69.06 4.77 122.44 185.4 191.79 165.29 277.01-87.55 25.86-112.77-35.84-166.21-53.53 27.87 117.42 297.45 101.29 321.88-14.51 27.32-129.51-164.09-211.34-170.77-294.1l5.01-18.98zM15045 3376.5c-15.11-13.75 14.12-13.29-46.57-18.65-8.96-.79-39.03.75-50.22.87l-284.19-.78c-38.06 6.7-17.89 1.9-38.41 22.47l119.46 2.44-1.82 386.63h183.23l5.29-388.48 113.23-4.5zM11546.69 3373.43c124.84-14.98 222.97 83.98 214.68 210.34-6.83 104.27-103.14 202.84-220.03 176.73l-2.79-201.9 8.14-185.17zm-193.45 246.8c22.34 100.33 133.35 188.4 264.99 157.88 104.42-24.21 189.09-135.92 157.44-263.41-66.75-268.82-487.51-186.81-422.43 105.53zM16639.97 3377.18c122.84-6.88 219.22 74.83 219.59 193.37.37 122.95-93.82 209.47-222.03 199.41l2.44-392.78zm-195.09 218.4c24.51 264.52 451.94 248.41 434.27-35.22-18.14-291.33-461.35-256.98-434.27 35.22zM12522.03 3778.71l342.83-.28c48.54-6.92 4.74 1.21 26.26-10.31l-187.56-8.81 1.38-391.13-182.53 2.63-.38 407.9zM15587.13 3782.8l169.59-5.03 3.27-404.72h-175.01z" class="fil2"/></g></g></svg>